<svg xmlns="http://www.w3.org/2000/svg" style="display:none;">

<!-- ICON: Agents IA — Luxury version -->
<symbol id="icon-agents-luxury" viewBox="0 0 24 24">
  <g fill="none" stroke="#B89A6A" stroke-width="1" stroke-linecap="round" stroke-linejoin="round">
    <circle cx="12" cy="8" r="3.5"/>
    <path d="M7 20c0-2.76 2.24-5 5-5s5 2.24 5 5"/>
    <circle cx="18" cy="7" r="2.5" opacity="0.6"/>
    <path d="M20 17c0-1.5 1-2.8 2.5-3" opacity="0.5"/>
    <circle cx="6" cy="7" r="2.5" opacity="0.6"/>
    <path d="M4 17c0-1.5-1-2.8-2.5-3" opacity="0.5"/>
    <path d="M12 13v2" stroke-width="0.8"/>
  </g>
</symbol>

<!-- ICON: Creative Production — Luxury version -->
<symbol id="icon-creative-luxury" viewBox="0 0 24 24">
  <g fill="none" stroke="#B89A6A" stroke-width="1" stroke-linecap="round" stroke-linejoin="round">
    <rect x="2" y="3" width="20" height="14" rx="2"/>
    <path d="M8 10l6-3.5 6 3.5v2.5l-6 3.5-6-3.5v-2.5z" fill="#B89A6A" opacity="0.15"/>
    <path d="M10 9.5l4 2.5 4-2.5" fill="none" stroke="#B89A6A" stroke-width="1.2"/>
    <path d="M8 21h8M12 18v3"/>
  </g>
</symbol>

<!-- ICON: Data & Analytics — Luxury version -->
<symbol id="icon-data-luxury" viewBox="0 0 24 24">
  <g fill="none" stroke="#B89A6A" stroke-width="1" stroke-linecap="round" stroke-linejoin="round">
    <rect x="2" y="2" width="20" height="18" rx="2"/>
    <path d="M5 18l3.5-5 2.5 2 3.5-6 5.5 9" fill="none" stroke="#B89A6A" stroke-width="1.2"/>
    <circle cx="9" cy="8" r="1.5" fill="#B89A6A" opacity="0.3"/>
    <line x1="2" y1="16" x2="22" y2="16" stroke-width="0.8" opacity="0.3"/>
  </g>
</symbol>

<!-- ICON: Automation & Integration — Luxury version -->
<symbol id="icon-automation-luxury" viewBox="0 0 24 24">
  <g fill="none" stroke="#B89A6A" stroke-width="1" stroke-linecap="round" stroke-linejoin="round">
    <circle cx="12" cy="12" r="4"/>
    <path d="M12 2v3M12 19v3M22 12h-3M5 12H2"/>
    <path d="M18.5 5.5l-2 2M5.5 18.5l2-2M18.5 18.5l-2-2M5.5 5.5l2 2"/>
    <circle cx="12" cy="12" r="1.5" fill="#B89A6A" opacity="0.4"/>
  </g>
</symbol>

<!-- ICON: IoT & Connectivity — Luxury version -->
<symbol id="icon-iot-luxury" viewBox="0 0 24 24">
  <g fill="none" stroke="#B89A6A" stroke-width="1" stroke-linecap="round">
    <circle cx="12" cy="12" r="2.5" fill="#B89A6A" opacity="0.3"/>
    <circle cx="12" cy="12" r="6" opacity="0.5"/>
    <circle cx="12" cy="12" r="10" opacity="0.25"/>
    <path d="M8.2 8.2l-2-2M15.8 15.8l2 2M15.8 8.2l2-2M8.2 15.8l-2 2" stroke-width="0.8" opacity="0.4"/>
  </g>
</symbol>

<!-- ICON: Custom Plan — Luxury version -->
<symbol id="icon-plan-luxury" viewBox="0 0 24 24">
  <g fill="none" stroke="#B89A6A" stroke-width="1" stroke-linecap="round" stroke-linejoin="round">
    <path d="M12 2l3 7h7.5l-6 4.5 2.5 7.5L12 16.5 6 21l2.5-7.5L2.5 9h7.5L12 2z"/>
    <circle cx="12" cy="12" r="8.5" opacity="0.2"/>
  </g>
</symbol>

<!-- ICON: Play Button — Luxury version -->
<symbol id="icon-play-luxury" viewBox="0 0 24 24">
  <g fill="none" stroke="#B89A6A" stroke-width="1.2" stroke-linecap="round" stroke-linejoin="round">
    <circle cx="12" cy="12" r="10"/>
    <path d="M9.5 8v8l6-4-6-4z" fill="#B89A6A" opacity="0.7"/>
  </g>
</symbol>

<!-- ICON: Check/Verification — Luxury version -->
<symbol id="icon-check-luxury" viewBox="0 0 24 24">
  <g fill="none" stroke="#B89A6A" stroke-width="1.5" stroke-linecap="round" stroke-linejoin="round">
    <path d="M20 6L9 17l-5-5"/>
  </g>
</symbol>

<!-- ICON: Arrow Right — Luxury version -->
<symbol id="icon-arrow-right-luxury" viewBox="0 0 24 24">
  <g fill="none" stroke="#B89A6A" stroke-width="1.2" stroke-linecap="round" stroke-linejoin="round">
    <path d="M5 12h14M12 5l7 7-7 7"/>
  </g>
</symbol>

<!-- ICON: Download — Luxury version -->
<symbol id="icon-download-luxury" viewBox="0 0 24 24">
  <g fill="none" stroke="#B89A6A" stroke-width="1" stroke-linecap="round" stroke-linejoin="round">
    <path d="M12 2v12M18 14l-6 6-6-6M4 20h16"/>
  </g>
</symbol>

<!-- ICON: Settings/Configuration — Luxury version -->
<symbol id="icon-settings-luxury" viewBox="0 0 24 24">
  <g fill="none" stroke="#B89A6A" stroke-width="1" stroke-linecap="round" stroke-linejoin="round">
    <circle cx="12" cy="12" r="3"/>
    <path d="M12 1v3m0 12v3M4 12H1m16 0h3M5 5l-2-2m14 14l2 2M19 5l2-2m-14 14l-2 2"/>
    <circle cx="12" cy="12" r="8" opacity="0.15"/>
  </g>
</symbol>

<!-- ICON: Shield/Security — Luxury version -->
<symbol id="icon-shield-luxury" viewBox="0 0 24 24">
  <g fill="none" stroke="#B89A6A" stroke-width="1" stroke-linecap="round" stroke-linejoin="round">
    <path d="M12 1L4 5v6c0 6 8 10 8 10s8-4 8-10V5l-8-4z"/>
    <path d="M9 12l2 2 4-4" opacity="0.6"/>
  </g>
</symbol>

<!-- ICON: Zap/Performance — Luxury version -->
<symbol id="icon-zap-luxury" viewBox="0 0 24 24">
  <g fill="none" stroke="#B89A6A" stroke-width="1.2" stroke-linecap="round" stroke-linejoin="round">
    <path d="M13 2l-3 8h6l-6 10 3-8H4l9-2z" fill="#B89A6A" opacity="0.15"/>
    <path d="M13 2l-3 8h6l-6 10 3-8H4l9-2z"/>
  </g>
</symbol>

<!-- ICON: Globe/International — Luxury version -->
<symbol id="icon-globe-luxury" viewBox="0 0 24 24">
  <g fill="none" stroke="#B89A6A" stroke-width="1" stroke-linecap="round">
    <circle cx="12" cy="12" r="10"/>
    <path d="M2 12h20M12 2c0 5.5-2.5 10-5 10s-5-4.5-5-10c0 5.5 2.5 10 5 10s5-4.5 5-10"/>
    <circle cx="12" cy="12" r="2" opacity="0.3"/>
  </g>
</symbol>

<!-- ICON: Infinity/Scale — Luxury version -->
<symbol id="icon-infinity-luxury" viewBox="0 0 24 24">
  <g fill="none" stroke="#B89A6A" stroke-width="1.2" stroke-linecap="round" stroke-linejoin="round">
    <path d="M6 12c0-2 1.5-3 3-3s3 1 3 3-1.5 3-3 3-3-1-3-3zm6 0c0-2 1.5-3 3-3s3 1 3 3-1.5 3-3 3-3-1-3-3z"/>
  </g>
</symbol>

<!-- ICON: Brain/Intelligence — Luxury version -->
<symbol id="icon-brain-luxury" viewBox="0 0 24 24">
  <g fill="none" stroke="#B89A6A" stroke-width="1" stroke-linecap="round" stroke-linejoin="round">
    <path d="M8 13c0 2-1 3-2 3-1.5 0-2.5-1-2.5-2.5C3.5 12 4.5 10 6 10c1 0 2 1 2 3z"/>
    <path d="M16 13c0 2 1 3 2 3 1.5 0 2.5-1 2.5-2.5C20.5 12 19.5 10 18 10c-1 0-2 1-2 3z"/>
    <path d="M12 2l3 4h-6l3-4zM12 18v2c0 1 0 2-1 2h2c-1 0-1-1-1-2v-2"/>
    <path d="M8 12h8v2c0 2-1 3-4 3s-4-1-4-3v-2z" opacity="0.2"/>
  </g>
</symbol>

<!-- ICON: Rocket/Launch — Luxury version -->
<symbol id="icon-rocket-luxury" viewBox="0 0 24 24">
  <g fill="none" stroke="#B89A6A" stroke-width="1" stroke-linecap="round" stroke-linejoin="round">
    <path d="M12 2l1.5 4h-3L12 2z"/>
    <path d="M12 2c0 3-2 5-3 8s0 8 3 12c3-4 4-9 3-12-1-3-3-5-3-8z"/>
    <circle cx="12" cy="8" r="1.5" fill="#B89A6A" opacity="0.4"/>
    <path d="M8 18l-2 4 2-1 2 1-2-4zM16 18l2 4-2-1-2 1 2-4z"/>
  </g>
</symbol>

</svg>