<svg width="139" height="34" viewBox="0 0 139 34" fill="none" xmlns="http://www.w3.org/2000/svg">
<path fill-rule="evenodd" clip-rule="evenodd" d="M29.1854 3.33236C29.1854 5.17276 27.7081 6.66471 25.8859 6.66471C24.0636 6.66471 22.5862 5.17276 22.5862 3.33236C22.5862 1.49195 24.0636 0 25.8859 0C27.7081 0 29.1854 1.49195 29.1854 3.33236ZM2.70004 16.9079C2.70004 10.7821 7.61733 5.81592 13.6828 5.81592C19.7493 5.81592 24.6655 10.7821 24.6655 16.9079C24.6655 23.0337 19.7482 27.9998 13.6828 27.9998C7.61733 27.9998 2.70004 23.0337 2.70004 16.9079ZM7.88835 16.9079C7.88835 20.1394 10.483 22.7599 13.6828 22.7599C16.8825 22.7599 19.4772 20.1394 19.4772 16.9079C19.4772 13.6762 16.8825 11.0558 13.6828 11.0558C10.483 11.0558 7.88835 13.6762 7.88835 16.9079Z" fill="white"/>
<path fill-rule="evenodd" clip-rule="evenodd" d="M61.393 11.6913C61.9022 11.6913 62.8779 11.7984 63.7056 12.9126L65.1487 11.0058C63.7066 9.50608 62.0307 9.33496 61.1397 9.33496C58.0004 9.33496 56.6002 11.4346 56.6002 13.5342C56.6002 14.9916 57.2584 15.7842 57.7248 16.1914C58.4463 16.8345 59.3373 17.1768 60.0794 17.4344L60.182 17.4698C60.9569 17.7366 61.7562 18.0119 62.2644 18.4837C62.6461 18.8476 62.8156 19.2547 62.8156 19.769C62.8156 20.9689 61.8817 21.7399 60.6305 21.7399C59.6334 21.7399 58.3393 21.2255 57.6605 19.833L55.8563 21.5668C56.5993 22.6594 58.1261 24.2663 60.7357 24.2663C63.6628 24.2663 65.657 22.3595 65.657 19.5744C65.657 18.118 65.0835 17.1533 64.4476 16.575C63.7261 15.9112 62.6871 15.5256 61.5838 15.1401C60.6928 14.8186 60.2254 14.6474 59.8866 14.3259C59.5477 14.0259 59.4416 13.7053 59.4416 13.3621C59.4416 12.6343 59.908 11.6913 61.393 11.6913ZM39.9487 20.9459H34.2426L32.9913 23.9454H30L36.0878 9.65527H38.2515L44.1699 23.9454H41.2L39.9487 20.9459ZM39.1425 18.6752L37.1269 13.5339L35.1112 18.6752H39.1425ZM48.5817 9.65674V23.9469H45.8241V9.65674H48.5817ZM72.3169 12.0563V23.946H69.5593V12.0553H66.377V9.65674H75.4991V12.0563H72.3169ZM79.9953 18.6334V9.65674H77.2376V18.3974C77.2376 19.7476 77.4499 21.1186 78.2981 22.2112C79.3166 23.5613 81.0986 24.2685 82.9223 24.2685C84.7462 24.2685 86.5282 23.5604 87.5466 22.2112C88.3948 21.1186 88.6071 19.7467 88.6071 18.3974V9.65674H85.8495V18.6334C85.8495 19.726 85.4891 20.3907 85.1707 20.7547C84.7676 21.2474 84.0256 21.7401 82.9223 21.7401C81.8191 21.7401 81.0772 21.2474 80.674 20.7547C80.3556 20.3898 79.9953 19.726 79.9953 18.6334ZM95.5221 9.65674C97.4948 9.65674 99.2135 9.87112 100.783 11.0493C102.502 12.3562 103.499 14.4342 103.499 16.8131C103.499 19.191 102.523 21.2474 100.657 22.5759C99.0022 23.7541 97.453 23.9469 95.4801 23.9469H91.8315V9.65674H95.5221ZM94.5883 21.5464H95.4364C96.1365 21.5464 97.6633 21.5031 98.8942 20.6033C100.019 19.789 100.655 18.3325 100.655 16.8112C100.655 15.3114 100.039 13.854 98.9156 12.9975C97.7704 12.14 96.3702 12.0544 95.4364 12.0544H94.5883V21.5464ZM108.8 23.9469V9.65674H106.043V23.9469H108.8ZM126.45 16.812C126.45 21.1607 123.353 24.2673 118.897 24.2673C114.443 24.2673 111.346 21.1607 111.346 16.812C111.346 12.4622 114.444 9.33496 118.897 9.33496C123.353 9.33496 126.45 12.4622 126.45 16.812ZM123.608 16.812C123.608 13.9197 121.656 11.8624 118.898 11.8624C116.141 11.8624 114.19 13.9197 114.19 16.812C114.19 19.7042 116.141 21.7389 118.898 21.7389C121.656 21.7389 123.608 19.7042 123.608 16.812ZM133.64 11.6913C134.148 11.6913 135.124 11.7984 135.951 12.9126L137.394 11.0058C135.951 9.50608 134.276 9.33496 133.385 9.33496C130.246 9.33496 128.845 11.4346 128.845 13.5342C128.845 14.9916 129.504 15.7842 129.97 16.1914C130.692 16.8345 131.583 17.1768 132.325 17.4344C132.36 17.4465 132.395 17.4586 132.43 17.4707C133.204 17.7372 134.003 18.0124 134.51 18.4837C134.892 18.8476 135.061 19.2547 135.061 19.769C135.061 20.9689 134.127 21.7399 132.876 21.7399C131.879 21.7399 130.585 21.2255 129.906 19.833L128.103 21.5668C128.845 22.6594 130.373 24.2663 132.982 24.2663C135.909 24.2663 137.903 22.3595 137.903 19.5744C137.903 18.118 137.329 17.1533 136.694 16.575C135.972 15.9112 134.934 15.5256 133.83 15.1401C132.939 14.8186 132.473 14.6474 132.133 14.3259C131.794 14.0259 131.688 13.7053 131.688 13.3621C131.688 12.6343 132.154 11.6913 133.64 11.6913Z" fill="white"/>
<path d="M81.162 27.975C81.162 28.1337 81.1573 28.283 81.148 28.423C81.1433 28.5583 81.1363 28.6657 81.127 28.745H81.162C81.26 28.5863 81.3977 28.4533 81.575 28.346C81.7523 28.2387 81.9763 28.185 82.247 28.185C82.6857 28.185 83.0357 28.3483 83.297 28.675C83.563 28.997 83.696 29.48 83.696 30.124C83.696 30.5533 83.6353 30.9127 83.514 31.202C83.3927 31.4913 83.2223 31.7083 83.003 31.853C82.7883 31.9977 82.5363 32.07 82.247 32.07C81.9717 32.07 81.7453 32.0163 81.568 31.909C81.3953 31.8017 81.26 31.6733 81.162 31.524H81.113L80.994 32H80.553V26.68H81.162V27.975ZM82.135 28.696C81.8923 28.696 81.6987 28.7473 81.554 28.85C81.414 28.948 81.3137 29.102 81.253 29.312C81.1923 29.5173 81.162 29.781 81.162 30.103V30.131C81.162 30.593 81.2297 30.9477 81.365 31.195C81.505 31.4377 81.7663 31.559 82.149 31.559C82.4523 31.559 82.681 31.4353 82.835 31.188C82.989 30.9407 83.066 30.5837 83.066 30.117C83.066 29.6457 82.989 29.291 82.835 29.053C82.681 28.815 82.4477 28.696 82.135 28.696ZM83.9308 28.248H84.5888L85.3378 30.383C85.3845 30.509 85.4265 30.6303 85.4638 30.747C85.5012 30.8637 85.5338 30.978 85.5618 31.09C85.5898 31.1973 85.6108 31.3023 85.6248 31.405H85.6458C85.6738 31.2883 85.7135 31.1367 85.7648 30.95C85.8208 30.7587 85.8792 30.5673 85.9398 30.376L86.6468 28.248H87.3118L85.7928 32.518C85.7088 32.7513 85.6085 32.9543 85.4918 33.127C85.3798 33.3043 85.2422 33.4397 85.0788 33.533C84.9155 33.631 84.7195 33.68 84.4908 33.68C84.3882 33.68 84.2948 33.673 84.2108 33.659C84.1315 33.6497 84.0638 33.638 84.0078 33.624V33.134C84.0545 33.1433 84.1128 33.1527 84.1828 33.162C84.2528 33.1713 84.3252 33.176 84.3998 33.176C84.5352 33.176 84.6518 33.148 84.7498 33.092C84.8478 33.0407 84.9318 32.9637 85.0018 32.861C85.0718 32.763 85.1302 32.6463 85.1768 32.511L85.3518 32.014L83.9308 28.248Z" fill="white"/>
<mask id="mask0_6041_16286" style="mask-type:luminance" maskUnits="userSpaceOnUse" x="90" y="27" width="48" height="6">
<path d="M137.667 27H90V33H137.667V27Z" fill="white"/>
</mask>
<g mask="url(#mask0_6041_16286)">
<path fill-rule="evenodd" clip-rule="evenodd" d="M90 32.7287V27.2666H91.4355C92.1644 27.2666 92.8673 27.4365 93.3922 27.8953C93.9277 28.3634 94.2083 29.0705 94.2083 29.9935C94.2083 30.915 93.9314 31.6239 93.3977 32.0945C92.874 32.5564 92.1703 32.7287 91.4355 32.7287H90ZM90.8648 28.1315V31.8639H91.4355C92.0499 31.8639 92.5165 31.7185 92.8257 31.4459C93.1249 31.182 93.3435 30.7395 93.3435 29.9935C93.3435 29.249 93.1231 28.8088 92.8231 28.5465C92.5124 28.275 92.0451 28.1315 91.4355 28.1315H90.8648ZM103.2 32.7287V27.2711H105.067C105.664 27.2711 106.146 27.4551 106.477 27.8024C106.804 28.145 106.934 28.5949 106.934 29.0347C106.934 29.4745 106.804 29.9243 106.477 30.2669C106.146 30.6142 105.664 30.7982 105.067 30.7982H104.065V32.7287H103.2ZM104.065 28.136V29.9333H105.067C105.483 29.9333 105.718 29.8095 105.851 29.6701C105.989 29.526 106.069 29.3103 106.069 29.0347C106.069 28.759 105.989 28.5433 105.851 28.3992C105.718 28.2598 105.483 28.136 105.067 28.136H104.065ZM95.0069 27.2711H98.2897V28.136H95.8718V29.5698H98.1518V30.4346H95.8718V31.8684H98.2897V32.7333H95.0069V27.2711ZM99.1035 32.7333V27.2711H102.386V28.136H99.9684V29.5698H102.248V30.4346H99.9684V31.8684H102.386V32.7333H99.1035ZM121.771 32.7287V27.2666L122.636 27.2666V32.7287H121.771ZM121.267 32.7287L119.314 27.2666H118.721L116.768 32.7287H117.686L118.148 31.4372H119.887L120.349 32.7287H121.267ZM119.018 29.0059L119.578 30.5723H118.457L119.018 29.0059ZM123.911 27.2666V32.7287H124.775V28.6637L127.314 32.7287H128.326V27.2666H127.461V31.3316L124.923 27.2666H123.911ZM115.254 30.6111L116.464 32.7287H115.468L114.345 30.7642H113.396V32.7275H112.531V27.2712H114.358C114.917 27.2712 115.406 27.4118 115.757 27.7348C116.114 28.063 116.266 28.5202 116.266 29.0177C116.266 29.5151 116.114 29.9724 115.757 30.3005C115.611 30.4344 115.442 30.5369 115.254 30.6111ZM113.396 28.136V29.8993H114.358C114.782 29.8993 115.031 29.7928 115.172 29.6637C115.307 29.5397 115.401 29.3399 115.401 29.0177C115.401 28.6955 115.307 28.4956 115.172 28.3716C115.031 28.2425 114.782 28.136 114.358 28.136H113.396ZM111.358 28.8461C111.358 29.2383 111.245 29.6141 111 29.9055C111.016 29.9164 111.031 29.9275 111.045 29.9388C111.407 30.2182 111.608 30.6335 111.608 31.1311C111.608 31.6287 111.407 32.0439 111.045 32.3233C110.698 32.5919 110.241 32.706 109.763 32.706H107.752V27.2712H109.816C110.273 27.2712 110.671 27.43 110.953 27.7325C111.23 28.0307 111.358 28.4291 111.358 28.8461ZM108.617 31.8411V30.421H109.763C110.116 30.421 110.365 30.5064 110.516 30.6231C110.653 30.729 110.743 30.885 110.743 31.1311C110.743 31.3771 110.653 31.5331 110.516 31.639C110.365 31.7558 110.116 31.8411 109.763 31.8411H108.617ZM108.617 28.136V29.5561H109.816C110.066 29.5561 110.223 29.4739 110.32 29.3702C110.42 29.2623 110.494 29.0894 110.494 28.8461C110.494 28.6027 110.42 28.4299 110.32 28.322C110.223 28.2183 110.066 28.136 109.816 28.136H108.617ZM133.766 27.2666L135.808 32.7287H134.545L134.175 31.7392H132.395L132.025 32.7287H130.761L132.803 27.2666H133.766ZM133.733 30.5557L133.285 29.3584L132.837 30.5557H133.733ZM136.268 27.2666V32.7287H137.452V27.2666H136.268Z" fill="white"/>
</g>
</svg>
