<svg xmlns="http://www.w3.org/2000/svg" width="777" height="199" viewBox="0 0 777 199" fill="none">
  <g clip-path="url(#clip0_18_79054)">
    <path d="M100.17 52.3601C61.1001 38.5132 17.5368 59.3845 4.20253 98.3174C-9.50714 138.34 11.453 181.641 51.0116 194.673C89.5489 207.365 125.236 187.317 138.118 163.584C128.308 157.956 118.494 152.328 108.713 146.721C96.9487 161.274 82.1773 166.858 64.253 162.167C50.5837 158.586 41.6175 149.507 36.438 135.749H148.998C155.122 108.676 141.319 66.9458 100.166 52.3601H100.17ZM37.6088 109.573C38.4 97.6271 56.9581 83.7761 73.3443 82.8556C90.5541 81.8868 110.097 94.9909 112.955 109.573H37.6088Z" fill="white"></path>
    <path d="M213.477 159.102C206.093 155.647 203.921 148.937 203.933 141.11C203.966 116.371 203.703 0 203.703 0H169.494C169.494 0 169.13 99.2458 169.433 144.04C169.667 178.981 202.823 203.255 236.451 193.514C236.726 193.433 237 193.348 237.275 193.264V159.615C237.025 159.789 221.337 162.776 213.485 159.102H213.477Z" fill="white"></path>
    <path d="M421.823 195.977H455.867V50.7978H421.823V195.977Z" fill="white"></path>
    <path d="M438.895 0.185759C428.363 0.113093 419.683 8.73614 419.602 19.3575C419.521 29.8618 428.262 38.5979 438.839 38.5858C449.533 38.5737 458.063 30.0798 458.083 19.4261C458.103 8.79266 449.593 0.262462 438.895 0.185759Z" fill="white"></path>
    <path d="M494.008 157.888C483.488 157.904 474.756 166.672 474.796 177.18C474.837 187.721 483.536 196.296 494.178 196.283C504.811 196.271 513.33 187.697 513.313 177.015C513.297 166.438 504.654 157.871 494.012 157.888H494.008Z" fill="white"></path>
    <path d="M358.861 57.3941C327.712 40.3176 289.615 48.0565 267.5 71.459C240.363 100.166 240.202 145.558 267.431 175.081C288.383 197.797 326.868 206.852 358.861 189.323V195.912H392.905V50.7976H358.861V57.3941ZM322.286 163.85C300.329 163.955 281.678 145.55 281.65 123.746C281.621 101.24 299.63 83.0089 322.096 82.803C344.336 82.6012 362.749 100.941 362.866 123.411C362.983 145.445 344.623 163.737 322.282 163.846L322.286 163.85Z" fill="white"></path>
  </g>
  <path d="M503.683 118.319V80.4819H510.061V85.0324H510.437C510.772 84.3636 511.244 83.6529 511.853 82.9005C512.462 82.1361 513.286 81.4852 514.325 80.9477C515.364 80.3983 516.69 80.1236 518.302 80.1236C520.428 80.1236 522.345 80.667 524.053 81.7539C525.773 82.8288 527.135 84.4233 528.138 86.5373C529.153 88.6394 529.661 91.2192 529.661 94.2768C529.661 97.2985 529.165 99.8664 528.174 101.98C527.182 104.094 525.833 105.707 524.125 106.818C522.417 107.928 520.482 108.484 518.32 108.484C516.744 108.484 515.436 108.221 514.397 107.695C513.358 107.17 512.522 106.537 511.889 105.796C511.268 105.044 510.784 104.333 510.437 103.664H510.169V118.319H503.683ZM510.043 94.2409C510.043 96.0205 510.294 97.5792 510.796 98.9169C511.309 100.255 512.044 101.3 512.999 102.052C513.967 102.793 515.137 103.163 516.511 103.163C517.944 103.163 519.144 102.781 520.112 102.016C521.079 101.24 521.808 100.183 522.297 98.8452C522.799 97.4956 523.05 95.9608 523.05 94.2409C523.05 92.533 522.805 91.0162 522.315 89.6904C521.826 88.3647 521.097 87.3256 520.13 86.5731C519.162 85.8207 517.956 85.4445 516.511 85.4445C515.125 85.4445 513.949 85.8088 512.981 86.5373C512.014 87.2659 511.279 88.2871 510.778 89.6009C510.288 90.9146 510.043 92.4613 510.043 94.2409ZM546.209 108.537C543.522 108.537 541.193 107.946 539.222 106.764C537.251 105.581 535.722 103.927 534.635 101.801C533.561 99.6753 533.023 97.191 533.023 94.3484C533.023 91.5059 533.561 89.0156 534.635 86.8777C535.722 84.7398 537.251 83.0796 539.222 81.8972C541.193 80.7148 543.522 80.1236 546.209 80.1236C548.896 80.1236 551.225 80.7148 553.196 81.8972C555.167 83.0796 556.689 84.7398 557.764 86.8777C558.851 89.0156 559.395 91.5059 559.395 94.3484C559.395 97.191 558.851 99.6753 557.764 101.801C556.689 103.927 555.167 105.581 553.196 106.764C551.225 107.946 548.896 108.537 546.209 108.537ZM546.245 103.342C547.702 103.342 548.92 102.942 549.899 102.142C550.879 101.329 551.607 100.243 552.085 98.881C552.575 97.5195 552.82 96.0026 552.82 94.3305C552.82 92.6465 552.575 91.1237 552.085 89.7621C551.607 88.3886 550.879 87.2957 549.899 86.4836C548.92 85.6714 547.702 85.2653 546.245 85.2653C544.752 85.2653 543.51 85.6714 542.518 86.4836C541.539 87.2957 540.804 88.3886 540.315 89.7621C539.837 91.1237 539.598 92.6465 539.598 94.3305C539.598 96.0026 539.837 97.5195 540.315 98.881C540.804 100.243 541.539 101.329 542.518 102.142C543.51 102.942 544.752 103.342 546.245 103.342ZM568.781 108L561.006 80.4819H567.617L572.454 99.8306H572.705L577.649 80.4819H584.188L589.133 99.7231H589.402L594.167 80.4819H600.796L593.003 108H586.249L581.089 89.4038H580.713L575.553 108H568.781ZM615.709 108.537C612.95 108.537 610.568 107.964 608.561 106.818C606.566 105.659 605.032 104.023 603.957 101.909C602.882 99.7828 602.344 97.2806 602.344 94.4022C602.344 91.5715 602.882 89.0873 603.957 86.9494C605.044 84.7995 606.56 83.1274 608.507 81.933C610.454 80.7267 612.741 80.1236 615.369 80.1236C617.065 80.1236 618.665 80.3983 620.17 80.9477C621.687 81.4852 623.025 82.3212 624.183 83.4559C625.354 84.5905 626.273 86.0357 626.942 87.7914C627.611 89.5352 627.945 91.6134 627.945 94.026V96.0146H605.39V91.6432H621.729C621.717 90.4011 621.448 89.2963 620.923 88.3289C620.397 87.3495 619.663 86.5791 618.719 86.0178C617.787 85.4564 616.701 85.1757 615.458 85.1757C614.133 85.1757 612.968 85.4982 611.965 86.1432C610.962 86.7762 610.179 87.6122 609.618 88.6513C609.069 89.6785 608.788 90.8072 608.776 92.0374V95.8533C608.776 97.4538 609.069 98.8273 609.654 99.9739C610.239 101.109 611.057 101.98 612.108 102.59C613.159 103.187 614.389 103.485 615.799 103.485C616.742 103.485 617.596 103.354 618.361 103.091C619.125 102.816 619.788 102.416 620.349 101.891C620.911 101.365 621.335 100.714 621.621 99.9381L627.677 100.619C627.295 102.219 626.566 103.617 625.491 104.811C624.428 105.993 623.067 106.913 621.406 107.57C619.746 108.215 617.847 108.537 615.709 108.537ZM632.423 108V80.4819H638.711V85.0682H638.998C639.5 83.4797 640.36 82.2555 641.578 81.3956C642.808 80.5237 644.211 80.0878 645.788 80.0878C646.146 80.0878 646.546 80.1057 646.988 80.1415C647.442 80.1654 647.818 80.2072 648.117 80.2669V86.2327C647.842 86.1372 647.406 86.0536 646.809 85.9819C646.224 85.8983 645.657 85.8565 645.107 85.8565C643.925 85.8565 642.862 86.1133 641.918 86.6269C640.987 87.1285 640.252 87.8272 639.715 88.723C639.177 89.6188 638.908 90.6519 638.908 91.8224V108H632.423ZM662.466 108.537C659.707 108.537 657.324 107.964 655.318 106.818C653.323 105.659 651.788 104.023 650.714 101.909C649.639 99.7828 649.101 97.2806 649.101 94.4022C649.101 91.5715 649.639 89.0873 650.714 86.9494C651.8 84.7995 653.317 83.1274 655.264 81.933C657.211 80.7267 659.498 80.1236 662.126 80.1236C663.822 80.1236 665.422 80.3983 666.927 80.9477C668.444 81.4852 669.781 82.3212 670.94 83.4559C672.111 84.5905 673.03 86.0357 673.699 87.7914C674.368 89.5352 674.702 91.6134 674.702 94.026V96.0146H652.147V91.6432H668.486C668.474 90.4011 668.205 89.2963 667.679 88.3289C667.154 87.3495 666.419 86.5791 665.476 86.0178C664.544 85.4564 663.457 85.1757 662.215 85.1757C660.889 85.1757 659.725 85.4982 658.722 86.1432C657.718 86.7762 656.936 87.6122 656.375 88.6513C655.825 89.6785 655.545 90.8072 655.533 92.0374V95.8533C655.533 97.4538 655.825 98.8273 656.411 99.9739C656.996 101.109 657.814 101.98 658.865 102.59C659.916 103.187 661.146 103.485 662.556 103.485C663.499 103.485 664.353 103.354 665.118 103.091C665.882 102.816 666.545 102.416 667.106 101.891C667.667 101.365 668.091 100.714 668.378 99.9381L674.434 100.619C674.051 102.219 673.323 103.617 672.248 104.811C671.185 105.993 669.823 106.913 668.163 107.57C666.503 108.215 664.604 108.537 662.466 108.537ZM689.392 108.484C687.23 108.484 685.295 107.928 683.587 106.818C681.879 105.707 680.529 104.094 679.538 101.98C678.547 99.8664 678.051 97.2985 678.051 94.2768C678.051 91.2192 678.553 88.6394 679.556 86.5373C680.571 84.4233 681.939 82.8288 683.659 81.7539C685.379 80.667 687.296 80.1236 689.41 80.1236C691.022 80.1236 692.348 80.3983 693.387 80.9477C694.426 81.4852 695.25 82.1361 695.859 82.9005C696.468 83.6529 696.94 84.3636 697.274 85.0324H697.543V71.3092H704.046V108H697.669V103.664H697.274C696.94 104.333 696.456 105.044 695.823 105.796C695.19 106.537 694.354 107.17 693.315 107.695C692.276 108.221 690.968 108.484 689.392 108.484ZM691.201 103.163C692.575 103.163 693.745 102.793 694.713 102.052C695.68 101.3 696.415 100.255 696.916 98.9169C697.418 97.5792 697.669 96.0205 697.669 94.2409C697.669 92.4613 697.418 90.9146 696.916 89.6009C696.426 88.2871 695.698 87.2659 694.73 86.5373C693.775 85.8088 692.599 85.4445 691.201 85.4445C689.756 85.4445 688.55 85.8207 687.582 86.5731C686.615 87.3256 685.886 88.3647 685.397 89.6904C684.907 91.0162 684.662 92.533 684.662 94.2409C684.662 95.9608 684.907 97.4956 685.397 98.8452C685.898 100.183 686.633 101.24 687.6 102.016C688.579 102.781 689.78 103.163 691.201 103.163ZM721.74 108V71.3092H728.225V85.0324H728.494C728.828 84.3636 729.3 83.6529 729.909 82.9005C730.519 82.1361 731.343 81.4852 732.382 80.9477C733.421 80.3983 734.747 80.1236 736.359 80.1236C738.485 80.1236 740.402 80.667 742.11 81.7539C743.83 82.8288 745.191 84.4233 746.195 86.5373C747.21 88.6394 747.717 91.2192 747.717 94.2768C747.717 97.2985 747.222 99.8664 746.23 101.98C745.239 104.094 743.889 105.707 742.181 106.818C740.474 107.928 738.539 108.484 736.377 108.484C734.8 108.484 733.492 108.221 732.453 107.695C731.414 107.17 730.578 106.537 729.945 105.796C729.324 105.044 728.84 104.333 728.494 103.664H728.118V108H721.74ZM728.1 94.2409C728.1 96.0205 728.351 97.5792 728.852 98.9169C729.366 100.255 730.1 101.3 731.056 102.052C732.023 102.793 733.194 103.163 734.567 103.163C736.001 103.163 737.201 102.781 738.168 102.016C739.136 101.24 739.864 100.183 740.354 98.8452C740.856 97.4956 741.107 95.9608 741.107 94.2409C741.107 92.533 740.862 91.0162 740.372 89.6904C739.882 88.3647 739.154 87.3256 738.186 86.5731C737.219 85.8207 736.013 85.4445 734.567 85.4445C733.182 85.4445 732.005 85.8088 731.038 86.5373C730.071 87.2659 729.336 88.2871 728.834 89.6009C728.345 90.9146 728.1 92.4613 728.1 94.2409ZM755.317 118.319C754.433 118.319 753.615 118.248 752.862 118.104C752.122 117.973 751.531 117.818 751.089 117.639L752.594 112.586C753.537 112.861 754.379 112.992 755.12 112.98C755.86 112.969 756.511 112.736 757.072 112.282C757.646 111.84 758.129 111.099 758.524 110.06L759.079 108.573L749.1 80.4819H755.98L762.322 101.264H762.608L768.968 80.4819H775.866L764.848 111.332C764.334 112.789 763.653 114.038 762.805 115.077C761.957 116.128 760.918 116.928 759.688 117.477C758.47 118.039 757.013 118.319 755.317 118.319ZM576.157 186V149.309H589.916C592.734 149.309 595.099 149.835 597.01 150.886C598.933 151.937 600.384 153.382 601.364 155.221C602.355 157.049 602.851 159.127 602.851 161.456C602.851 163.809 602.355 165.899 601.364 167.726C600.372 169.554 598.909 170.993 596.974 172.044C595.04 173.083 592.657 173.603 589.826 173.603H580.707V168.138H588.93C590.579 168.138 591.928 167.852 592.979 167.278C594.03 166.705 594.807 165.917 595.308 164.914C595.822 163.91 596.079 162.758 596.079 161.456C596.079 160.154 595.822 159.007 595.308 158.016C594.807 157.025 594.024 156.254 592.961 155.705C591.91 155.144 590.555 154.863 588.895 154.863H582.803V186H576.157ZM615.763 186.555C614.019 186.555 612.449 186.245 611.051 185.624C609.666 184.991 608.567 184.059 607.755 182.829C606.955 181.599 606.555 180.082 606.555 178.278C606.555 176.726 606.841 175.442 607.415 174.427C607.988 173.411 608.77 172.599 609.762 171.99C610.753 171.381 611.87 170.921 613.112 170.611C614.366 170.288 615.662 170.055 616.999 169.912C618.612 169.745 619.92 169.595 620.923 169.464C621.926 169.321 622.655 169.106 623.109 168.819C623.574 168.521 623.807 168.061 623.807 167.44V167.332C623.807 165.982 623.407 164.937 622.607 164.197C621.807 163.456 620.654 163.086 619.149 163.086C617.561 163.086 616.301 163.433 615.369 164.125C614.449 164.818 613.828 165.636 613.506 166.58L607.45 165.72C607.928 164.048 608.716 162.65 609.815 161.528C610.914 160.393 612.258 159.545 613.846 158.984C615.435 158.41 617.19 158.124 619.113 158.124C620.439 158.124 621.759 158.279 623.073 158.589C624.386 158.9 625.587 159.413 626.674 160.13C627.761 160.835 628.632 161.796 629.289 163.015C629.958 164.233 630.293 165.756 630.293 167.583V186H624.058V182.22H623.843C623.449 182.984 622.894 183.701 622.177 184.37C621.472 185.027 620.582 185.558 619.508 185.964C618.445 186.358 617.196 186.555 615.763 186.555ZM617.447 181.79C618.749 181.79 619.878 181.533 620.833 181.02C621.789 180.494 622.523 179.801 623.037 178.941C623.562 178.081 623.825 177.144 623.825 176.129V172.886C623.622 173.053 623.276 173.208 622.786 173.352C622.308 173.495 621.771 173.62 621.174 173.728C620.576 173.835 619.985 173.931 619.4 174.015C618.815 174.098 618.307 174.17 617.877 174.23C616.91 174.361 616.044 174.576 615.279 174.875C614.515 175.173 613.912 175.591 613.47 176.129C613.028 176.654 612.807 177.335 612.807 178.171C612.807 179.365 613.243 180.267 614.115 180.876C614.987 181.485 616.098 181.79 617.447 181.79ZM643.299 169.876V186H636.814V158.482H643.013V163.158H643.335C643.968 161.617 644.977 160.393 646.363 159.485C647.76 158.577 649.486 158.124 651.54 158.124C653.439 158.124 655.094 158.53 656.503 159.342C657.924 160.154 659.023 161.33 659.799 162.871C660.588 164.412 660.976 166.281 660.964 168.479V186H654.478V169.482C654.478 167.643 654.001 166.203 653.045 165.164C652.102 164.125 650.794 163.606 649.122 163.606C647.987 163.606 646.978 163.857 646.094 164.358C645.222 164.848 644.535 165.558 644.034 166.49C643.544 167.422 643.299 168.55 643.299 169.876ZM679.56 186.537C676.873 186.537 674.544 185.946 672.573 184.764C670.602 183.581 669.074 181.927 667.987 179.801C666.912 177.675 666.374 175.191 666.374 172.348C666.374 169.506 666.912 167.016 667.987 164.878C669.074 162.74 670.602 161.08 672.573 159.897C674.544 158.715 676.873 158.124 679.56 158.124C682.247 158.124 684.576 158.715 686.547 159.897C688.518 161.08 690.041 162.74 691.115 164.878C692.202 167.016 692.746 169.506 692.746 172.348C692.746 175.191 692.202 177.675 691.115 179.801C690.041 181.927 688.518 183.581 686.547 184.764C684.576 185.946 682.247 186.537 679.56 186.537ZM679.596 181.342C681.053 181.342 682.271 180.942 683.251 180.142C684.23 179.329 684.959 178.243 685.436 176.881C685.926 175.519 686.171 174.003 686.171 172.331C686.171 170.646 685.926 169.124 685.436 167.762C684.959 166.389 684.23 165.296 683.251 164.484C682.271 163.671 681.053 163.265 679.596 163.265C678.103 163.265 676.861 163.671 675.869 164.484C674.89 165.296 674.156 166.389 673.666 167.762C673.188 169.124 672.949 170.646 672.949 172.331C672.949 174.003 673.188 175.519 673.666 176.881C674.156 178.243 674.89 179.329 675.869 180.142C676.861 180.942 678.103 181.342 679.596 181.342ZM698.25 196.319V158.482H704.628V163.032H705.004C705.339 162.364 705.811 161.653 706.42 160.9C707.029 160.136 707.853 159.485 708.892 158.948C709.931 158.398 711.257 158.124 712.869 158.124C714.995 158.124 716.912 158.667 718.62 159.754C720.34 160.829 721.702 162.423 722.705 164.537C723.72 166.639 724.228 169.219 724.228 172.277C724.228 175.299 723.732 177.866 722.741 179.98C721.749 182.094 720.4 183.707 718.692 184.818C716.984 185.928 715.049 186.484 712.887 186.484C711.311 186.484 710.003 186.221 708.964 185.695C707.925 185.17 707.089 184.537 706.456 183.796C705.834 183.044 705.351 182.333 705.004 181.664H704.736V196.319H698.25ZM704.61 172.241C704.61 174.021 704.861 175.579 705.363 176.917C705.876 178.255 706.611 179.3 707.566 180.052C708.534 180.793 709.704 181.163 711.078 181.163C712.511 181.163 713.711 180.781 714.679 180.016C715.646 179.24 716.375 178.183 716.864 176.845C717.366 175.496 717.617 173.961 717.617 172.241C717.617 170.533 717.372 169.016 716.882 167.69C716.393 166.365 715.664 165.326 714.697 164.573C713.729 163.821 712.523 163.444 711.078 163.444C709.692 163.444 708.516 163.809 707.548 164.537C706.581 165.266 705.846 166.287 705.345 167.601C704.855 168.915 704.61 170.461 704.61 172.241ZM743.523 158.482V163.498H727.703V158.482H743.523ZM731.609 151.889H738.094V177.723C738.094 178.595 738.226 179.264 738.488 179.73C738.763 180.183 739.121 180.494 739.563 180.661C740.005 180.828 740.495 180.912 741.032 180.912C741.438 180.912 741.809 180.882 742.143 180.822C742.489 180.763 742.752 180.709 742.931 180.661L744.024 185.731C743.678 185.851 743.182 185.982 742.537 186.125C741.904 186.269 741.128 186.352 740.208 186.376C738.584 186.424 737.121 186.179 735.819 185.642C734.517 185.092 733.484 184.244 732.72 183.098C731.967 181.951 731.597 180.518 731.609 178.798V151.889ZM760.654 186.537C757.967 186.537 755.638 185.946 753.667 184.764C751.696 183.581 750.168 181.927 749.081 179.801C748.006 177.675 747.468 175.191 747.468 172.348C747.468 169.506 748.006 167.016 749.081 164.878C750.168 162.74 751.696 161.08 753.667 159.897C755.638 158.715 757.967 158.124 760.654 158.124C763.342 158.124 765.671 158.715 767.641 159.897C769.612 161.08 771.135 162.74 772.21 164.878C773.297 167.016 773.84 169.506 773.84 172.348C773.84 175.191 773.297 177.675 772.21 179.801C771.135 181.927 769.612 183.581 767.641 184.764C765.671 185.946 763.342 186.537 760.654 186.537ZM760.69 181.342C762.147 181.342 763.365 180.942 764.345 180.142C765.324 179.329 766.053 178.243 766.53 176.881C767.02 175.519 767.265 174.003 767.265 172.331C767.265 170.646 767.02 169.124 766.53 167.762C766.053 166.389 765.324 165.296 764.345 164.484C763.365 163.671 762.147 163.265 760.69 163.265C759.197 163.265 757.955 163.671 756.964 164.484C755.984 165.296 755.25 166.389 754.76 167.762C754.282 169.124 754.043 170.646 754.043 172.331C754.043 174.003 754.282 175.519 754.76 176.881C755.25 178.243 755.984 179.329 756.964 180.142C757.955 180.942 759.197 181.342 760.69 181.342Z" fill="#2CED80"></path>
  <defs>
    <clipPath id="clip0_18_79054">
      <rect width="513.309" height="198.609" fill="white"></rect>
    </clipPath>
  </defs>
</svg>