<svg xmlns="http://www.w3.org/2000/svg" viewBox="0 0 900 440" width="100%"
     style="--gold:#B89A6A;--blue:#3B82F6;--ink:#EAE6DF;--muted:#9A968F;max-width:900px;font-family:Inter,sans-serif"
     role="img" aria-label="Diagrama: transformación">
  <defs>
    <linearGradient id="gGold" x1="0" y1="0" x2="1" y2="1"><stop offset="0" stop-color="#D8BC86"/><stop offset="1" stop-color="#B89A6A"/></linearGradient>
    <linearGradient id="gBlue" x1="0" y1="0" x2="1" y2="1"><stop offset="0" stop-color="#5B8DEF"/><stop offset="1" stop-color="#3B82F6"/></linearGradient>
    <filter id="soft" x="-40%" y="-40%" width="180%" height="180%"><feGaussianBlur stdDeviation="4" result="b"/><feMerge><feMergeNode in="b"/><feMergeNode in="SourceGraphic"/></feMerge></filter>
    <marker id="arrow" markerWidth="9" markerHeight="9" refX="6" refY="3" orient="auto"><path d="M0,0 L6,3 L0,6 Z" fill="#B89A6A"/></marker>
  </defs>
  <g class="node-in">
    <rect x="18" y="188" rx="10" width="132" height="64" fill="rgba(184,154,106,.08)" stroke="url(#gGold)" stroke-width="1.2"/>
    <text x="84" y="214" text-anchor="middle" fill="#EAE6DF" font-size="14" font-weight="500">Entrada</text>
    <text x="84" y="233" text-anchor="middle" fill="#9A968F" font-size="10.5">iniciar</text>
  </g>
  <path class="flow-in" d="M150 220 H300" fill="none" stroke="url(#gGold)" stroke-width="2.4" stroke-dasharray="150" stroke-dashoffset="150" marker-end="url(#arrow)"/>
  <g class="router" style="transform-box:fill-box;transform-origin:center">
    <polygon points="360,175 405,220 360,265 315,220" fill="rgba(184,154,106,.12)" stroke="url(#gGold)" stroke-width="1.6"/>
    <text x="360" y="216" text-anchor="middle" fill="#EAE6DF" font-size="11" font-weight="600">Orquestador</text>
    <text x="360" y="232" text-anchor="middle" fill="#B89A6A" font-size="9.5">transformación</text>
  </g>
  <path class="conn-agent" d="M400 205 H470" fill="none" stroke="rgba(184,154,106,.55)" stroke-width="1.6" stroke-dasharray="90" stroke-dashoffset="90"/>
  <path class="conn-agent" d="M395 220 H470" fill="none" stroke="rgba(184,154,106,.55)" stroke-width="1.6" stroke-dasharray="90" stroke-dashoffset="90"/>
  <path class="conn-agent" d="M400 235 C440 250 445 300 470 305" fill="none" stroke="rgba(184,154,106,.55)" stroke-width="1.6" stroke-dasharray="120" stroke-dashoffset="120"/>
  <path class="conn-agent" d="M400 200 C440 150 445 130 470 128" fill="none" stroke="rgba(184,154,106,.55)" stroke-width="1.6" stroke-dasharray="120" stroke-dashoffset="120"/>
  
  <g class="agent"><rect x="470" y="104" rx="8" width="150" height="48" fill="rgba(59,130,246,.08)" stroke="url(#gBlue)" stroke-width="1.2"/><text x="545" y="126" text-anchor="middle" fill="#EAE6DF" font-size="12">Conversión</text><text x="545" y="142" text-anchor="middle" fill="#7E96C4" font-size="9.5">rápido</text></g>
  <g class="agent"><rect x="470" y="182" rx="8" width="150" height="48" fill="rgba(59,130,246,.08)" stroke="url(#gBlue)" stroke-width="1.2"/><text x="545" y="204" text-anchor="middle" fill="#EAE6DF" font-size="12">Mapeo</text><text x="545" y="220" text-anchor="middle" fill="#7E96C4" font-size="9.5">preciso</text></g>
  <g class="agent"><rect x="470" y="282" rx="8" width="150" height="48" fill="rgba(59,130,246,.08)" stroke="url(#gBlue)" stroke-width="1.2"/><text x="545" y="304" text-anchor="middle" fill="#EAE6DF" font-size="12">Entrega</text><text x="545" y="320" text-anchor="middle" fill="#7E96C4" font-size="9.5">validado</text></g>
  <g class="context" style="transform-box:fill-box;transform-origin:center">
    <ellipse cx="360" cy="352" rx="52" ry="12" fill="rgba(184,154,106,.14)" stroke="url(#gGold)" stroke-width="1.2"/>
    <path d="M308 352 V392 A52 12 0 0 0 412 392 V352" fill="rgba(184,154,106,.06)" stroke="url(#gGold)" stroke-width="1.2"/>
    <text x="360" y="382" text-anchor="middle" fill="#EAE6DF" font-size="10" font-weight="500">Pipeline activo</text>
    <text x="360" y="398" text-anchor="middle" fill="#B89A6A" font-size="9">compartido</text>
  </g>
  <path d="M360 265 V340" fill="none" stroke="rgba(184,154,106,.3)" stroke-width="1.2" stroke-dasharray="4 4"/>
  <path d="M470 320 C420 340 400 350 412 356" fill="none" stroke="rgba(184,154,106,.25)" stroke-width="1.2" stroke-dasharray="4 4"/>
  <path class="conn-qa" d="M620 128 C670 150 690 180 700 200" fill="none" stroke="rgba(216,188,134,.5)" stroke-width="1.6" stroke-dasharray="130" stroke-dashoffset="130"/>
  <path class="conn-qa" d="M620 206 H700" fill="none" stroke="rgba(216,188,134,.5)" stroke-width="1.6" stroke-dasharray="90" stroke-dashoffset="90"/>
  <path class="conn-qa" d="M620 306 C670 290 690 240 700 216" fill="none" stroke="rgba(216,188,134,.5)" stroke-width="1.6" stroke-dasharray="130" stroke-dashoffset="130"/>
  <g class="qa" style="transform-box:fill-box;transform-origin:center">
    <path d="M745 168 L790 182 V214 C790 240 770 252 745 262 C720 252 700 240 700 214 V182 Z" fill="rgba(184,154,106,.12)" stroke="url(#gGold)" stroke-width="1.5"/>
    <text x="745" y="208" text-anchor="middle" fill="#EAE6DF" font-size="13" font-weight="600">OK</text>
    <text x="745" y="224" text-anchor="middle" fill="#B89A6A" font-size="9">salida</text>
  </g>
  <path class="flow-out" d="M790 214 H862" fill="none" stroke="url(#gGold)" stroke-width="2.4" stroke-dasharray="80" stroke-dashoffset="80" marker-end="url(#arrow)"/>
  <text x="838" y="200" text-anchor="middle" fill="#9A968F" font-size="10">resultado</text>
</svg>